<svg xmlns="http://www.w3.org/2000/svg" xmlns:xlink="http://www.w3.org/1999/xlink" width="400" height="190" viewBox="0 0 400 190">
  <defs>
    <clipPath id="clip-FBMA-logo-white">
      <rect width="400" height="190"/>
    </clipPath>
  </defs>
  <g id="FBMA-logo-white" clip-path="url(#clip-FBMA-logo-white)">
    <g id="Group_28" data-name="Group 28" transform="translate(10 6.354)">
      <path id="Path_442" data-name="Path 442" d="M19520.881,15010.021c-.186,0-.27-.083-.27-.274V15007c0-.191.084-.274.27-.274h.6c1.928,0,2.066-1.252,2.066-3.509v-9.951c0-.191.078-.274.27-.274h3.316c.191,0,.275.083.275.274v6.418c.078.894.785,1.468,2.066,1.468h8.566c1.252,0,1.307-.874,1.307-2.479v-12.453c0-.191.082-.275.273-.275h3.318c.186,0,.27.084.27.275v13.464c0,.952.76,1.468,2.07,1.468h1.551c.893,0,1.3-.354,1.3-1.443v-13.488c0-.191.084-.275.27-.275h3.322c.188,0,.27.084.27.275v14.794c0,2.395-.9,3.43-3.184,3.43h-3.02c-1.332-.01-2.3-.221-2.963-1.358-.545,1.056-1.525,1.359-3.291,1.359h-9.467a3.067,3.067,0,0,1-2.664-.927v.437c0,4.132-1.443,6.064-5.275,6.064Zm-3.807,0c-.191,0-.275-.083-.275-.274v-2.664c0-.191.084-.271.275-.271h2.746c.191,0,.271.079.271.271v2.664c0,.191-.08.274-.271.274Zm-4.191,0c-.186,0-.27-.083-.27-.274v-2.664c0-.191.084-.271.27-.271h2.723c.188,0,.271.079.271.271v2.664c0,.191-.084.274-.271.274Zm-232.277,0c-.191,0-.275-.083-.275-.274v-2.664c0-.191.084-.271.275-.271h2.746c.188,0,.271.079.271.271v2.664c0,.191-.084.274-.271.274Zm-4.191,0c-.191,0-.27-.083-.27-.274v-2.664c0-.191.078-.271.27-.271h2.719c.191,0,.275.079.275.271v2.664c0,.191-.084.274-.275.274Zm235.408-5.574H19396.84c-2.287,0-3.18-1.035-3.18-3.43v-14.794c0-.191.078-.275.27-.275h3.287c.191,0,.275.084.275.275v13.488c0,1.09.406,1.443,1.3,1.443h114.715c.9,0,1.3-.354,1.3-1.443v-6.442c0-.191.084-.274.27-.274h3.293c.191,0,.27.083.27.274v7.748c0,2.395-.893,3.43-3.18,3.43Zm-131.715,0c-1.115,0-2.641-.029-3.043-.574-.682.574-1.635.574-3.023.574h-1.957c-.037,0-.072,0-.107,0s-.074,0-.113,0h-2.826c-1.771,0-2.748-.466-3.072-2.017a4.766,4.766,0,0,1-3.047.981c-2.855,0-5.3-1.5-5.3-5.3,0-4.352,2.773-5.574,5.521-5.574h2.717v-1.168c0-.2.084-.274.275-.274h3.316c.188,0,.271.079.271.274v8.347c0,1.09.406,1.443,1.3,1.443h.844l.088,0c.043,0,.086,0,.133,0h1.09c1.006,0,1.113-.545,1.113-1.958v-6.148c0-.191.084-.27.27-.27h3.293c.191,0,.275.078.275.27v.814a14.328,14.328,0,0,1,5.789-1.33c4.436,0,6.748,2.037,6.748,6.526,0,4.3-1.5,5.388-5.5,5.388Zm-1.982-7.4v3.047c0,.407-.029.731-.055,1.061h5.383c2.719,0,3.238-.108,3.238-2.287,0-1.987-.766-3.047-3.514-3.047A12.771,12.771,0,0,0,19378.125,14997.047Zm-16.732,1.06c0,1.521.926,2.013,2.2,2.013,1.389,0,2.256-.761,2.256-2.42v-1.879h-2.174C19362.289,14995.82,19361.393,14996.365,19361.393,14998.106Zm-18.99,6.34a.269.269,0,0,1-.266-.27v-17.959a.269.269,0,0,1,.266-.271h3.3a.268.268,0,0,1,.264.271v17.959a.267.267,0,0,1-.264.27Zm-9.707,0c-.043,0-.088,0-.129,0a2.881,2.881,0,0,1-2.834-1.357c-.629,1.114-1.609,1.359-3.562,1.359h-2.262c-1.389,0-2.395-.191-3.072-1.359-.52,1.061-1.525,1.359-2.807,1.359h-1.5a2.847,2.847,0,0,1-2.744-1.442c-.514,1.114-1.5,1.442-3.262,1.442h-1.061a2.9,2.9,0,0,1-2.777-1.442c-.516,1.168-1.437,1.442-3.287,1.442h-5.963c-2.281,0-3.18-1.035-3.18-3.43v-14.794c0-.191.084-.275.271-.275h3.291c.188,0,.27.084.27.275v13.488c0,1.09.408,1.443,1.307,1.443h2.561c1.061,0,1.223-.437,1.223-1.851v-4.082c0-.187.082-.27.273-.27h3.318c.186,0,.27.083.27.27v4.465c0,1.168.873,1.468,1.742,1.468,1.412,0,1.5-.516,1.5-1.934v-4c0-.187.078-.27.27-.27h3.322c.188,0,.27.083.27.27v4.436c0,1.227.869,1.5,1.82,1.5,1.359,0,1.389-.545,1.389-1.958v-5.928c0-.191.084-.274.271-.274h3.32c.188,0,.271.083.271.274v6.418c.078.894.789,1.468,2.064,1.468h.629l.08,0,.057,0h.9c1.113,0,1.3-.545,1.3-2.179v-5.712c0-.3.682-.27,1.09-.27h2.5c.188,0,.27.083.27.27v6.418c.084.9.791,1.473,2.066,1.473h1.473c.9,0,1.3-.354,1.3-1.443v-13.488c0-.191.084-.275.275-.275h3.316c.191,0,.27.084.27.275v14.794c0,2.395-.9,3.43-3.18,3.43Zm-48.014,0h-.078c-1.389,0-2.395-.191-3.076-1.359-.57,1.168-1.658,1.359-3.646,1.359h-13.41l-.107,0-.109,0h-2.83c-1.768,0-2.748-.466-3.072-2.017a4.766,4.766,0,0,1-3.047.981c-2.855,0-5.3-1.5-5.3-5.3,0-4.352,2.777-5.574,5.52-5.574h2.725v-1.168c0-.2.078-.274.27-.274h3.316c.191,0,.275.079.275.274v8.347c0,1.09.408,1.443,1.3,1.443h.844c.037,0,.07,0,.1,0s.074,0,.113,0h12.3c1.168,0,1.3-.6,1.3-2.233v-5.652c0-.191.084-.274.275-.274h3.287c.191,0,.275.083.275.274v6.418c.078.894.785,1.468,2.066,1.468h1.662c.893,0,1.3-.354,1.3-1.443v-6.447c0-.187.084-.27.275-.27h3.316c.191,0,.27.083.27.27v7.753c0,2.395-.893,3.43-3.18,3.43Zm-30.9-6.34c0,1.521.922,2.013,2.2,2.013,1.389,0,2.258-.761,2.258-2.42v-1.879h-2.18C19254.676,14995.82,19253.783,14996.365,19253.783,14998.106Zm31.91-7.777c-.113,0-.168-.054-.168-.191v-1.28c0-.133.055-.187.168-.187h.951a2.49,2.49,0,0,1-.383-1.359c0-1.3.9-2.664,3.072-2.664a3.174,3.174,0,0,1,2.586,1.113.183.183,0,0,1-.029.271l-.869.927c-.082.079-.166.05-.244-.054a1.952,1.952,0,0,0-1.359-.6,1.062,1.062,0,0,0-1.174,1.119,1.37,1.37,0,0,0,.791,1.251h2.855c.107,0,.162.054.162.187v1.28c0,.138-.055.191-.162.191Zm96.047-.083c-.191,0-.27-.079-.27-.27v-2.67c0-.187.078-.27.27-.27h3.371c.191,0,.275.083.275.27v2.67c0,.19-.084.27-.275.27Zm-55.191,0c-.191,0-.271-.079-.271-.27v-2.67c0-.187.08-.27.271-.27h3.375c.186,0,.27.083.27.27v2.67c0,.19-.084.27-.27.27Zm37.973-1.085c-.189,0-.273-.083-.273-.274v-2.664c0-.191.084-.275.273-.275h2.744c.191,0,.275.084.275.275v2.664c0,.191-.084.274-.275.274Zm-4.189,0c-.191,0-.27-.083-.27-.274v-2.664c0-.191.078-.275.27-.275h2.719c.191,0,.273.084.273.275v2.664c0,.191-.082.274-.273.274Zm-103.424,0c-.191,0-.273-.083-.273-.274v-2.664c0-.191.082-.275.273-.275h2.748c.191,0,.275.084.275.275v2.664c0,.191-.084.274-.275.274Zm-4.189,0c-.187,0-.27-.083-.27-.274v-2.664c0-.191.082-.275.27-.275h2.723c.191,0,.27.084.27.275v2.664c0,.191-.078.274-.27.274Z" transform="translate(-19174.035 -14925.9)" fill="#fff" stroke="rgba(0,0,0,0)" stroke-width="1"/>
      <path id="Path_443" data-name="Path 443" d="M19502.7,15014.881c-.182,0-.26-.078-.26-.26v-2.586c0-.182.078-.266.26-.266h2.664a.231.231,0,0,1,.266.266v2.586c0,.182-.084.26-.266.26Zm-4.059,0c-.186,0-.264-.078-.264-.26v-2.586c0-.182.078-.266.264-.266h2.637c.186,0,.264.084.264.266v2.586c0,.182-.078.26-.264.26Zm-21.275,0c-.182,0-.26-.078-.26-.26v-2.586c0-.182.078-.266.26-.266h2.664c.188,0,.266.084.266.266v2.586c0,.182-.078.26-.266.26Zm-4.059,0c-.182,0-.26-.078-.26-.26v-2.586c0-.182.078-.266.26-.266h2.635c.188,0,.266.084.266.266v2.586c0,.182-.078.26-.266.26Zm-202.48-.157c-.186,0-.264-.078-.264-.26v-1.531c0-.187.078-.265.264-.265h.609c1.424,0,2.135-.736,2.135-2.242v-11.463c0-.187.078-.265.26-.265h1.688c.188,0,.266.078.266.265v11.413c0,2.847-1.473,4.348-4.244,4.348Zm99.189-.422c-.186,0-.266-.078-.266-.265v-1.924c0-.182.08-.26.266-.26h1.791c.182,0,.266.078.266.26v1.924c0,.187-.084.265-.266.265Zm-56.514,0c-.186,0-.26-.078-.26-.265v-1.924c0-.182.074-.26.26-.26h1.8c.182,0,.26.078.26.26v1.924c0,.187-.078.265-.26.265Zm82.791-6.114a3.4,3.4,0,0,1-3.033,1.291h-2.693c-1.713,0-2.66-.608-2.979-2.11a4.189,4.189,0,0,1-2.871.952c-2.742,0-4.828-1.531-4.828-4.828,0-3.9,2.4-5.271,5.01-5.271h2.586v-1.133c0-.187.078-.266.26-.266h1.688c.188,0,.266.079.266.266v8.936c0,1.055.4,1.4,1.266,1.4h2.479c.766,0,1.639-.579,1.639-2.4,0-.343-.029-.657-.029-1.055,0-4.033,1.869-5.746,5.035-5.746s5.033,1.713,5.033,5.746c0,.4-.023.79-.053,1.134.029,1.8.873,2.321,1.639,2.321h8.248c.869,0,1.266-.344,1.266-1.4v-14.182c0-.187.08-.265.266-.265h1.684c.186,0,.264.078.264.265v8.013a13.278,13.278,0,0,1,6.115-1.634c4.932,0,6.3,2.871,6.3,6.247,0,3.744-1.133,5.01-3.984,5.01h-8.857a1.051,1.051,0,0,1-.893-.344,3.8,3.8,0,0,1-1.766.344h-8.465a3.353,3.353,0,0,1-3.033-1.266,5.61,5.61,0,0,1-7.561-.025Zm.971-4.22c0,2.532.82,3.636,2.822,3.636s2.82-1.1,2.82-3.636c0-2.315-.818-3.689-2.82-3.689S19397.262,15001.652,19397.262,15003.968Zm21.168-2.056v4.244a7.846,7.846,0,0,1-.127,1.267h7.8c2,0,2.395-.579,2.395-3.033,0-2.61-.947-4.111-4.107-4.111A14.313,14.313,0,0,0,19418.43,15001.912Zm-36.324,1.58c0,1.82.945,2.768,2.635,2.768,2.006,0,2.742-1.237,2.742-3.347v-2.635h-2.586C19383.209,15000.278,19382.105,15001.068,19382.105,15003.492Zm-60.008,4.7a3.391,3.391,0,0,1-3.033,1.291h-1.5a2.52,2.52,0,0,1-2.455-1.369,2.713,2.713,0,0,1-2.742,1.369h-30.129c-2.213,0-3.082-1-3.082-3.322v-14.338c0-.187.08-.265.262-.265h1.688c.186,0,.264.078.264.265v14.206c0,1.055.4,1.4,1.268,1.4h29.338c.869,0,1.266-.344,1.266-1.4v-7.066c0-.182.074-.26.26-.26h1.689c.186,0,.264.078.264.26v6.674c0,1.182.9,1.791,2.375,1.791h1.424c.76,0,1.633-.579,1.633-2.4,0-.343-.029-.657-.029-1.055,0-4.033,1.875-5.746,5.041-5.746s5.033,1.713,5.033,5.746c0,4.009-1.953,5.7-5.033,5.7A4.631,4.631,0,0,1,19322.1,15008.188Zm.977-4.22c0,2.532.814,3.636,2.822,3.636s2.82-1.1,2.82-3.636c0-2.315-.818-3.689-2.82-3.689S19323.074,15001.652,19323.074,15003.968Zm161.83,4.088c-.789,1.29-2.635,1.423-3.664,1.423-1.346,0-2.322-.187-2.979-1.32-.551,1.134-1.605,1.32-3.533,1.32h-2.715c-.047,0-.094,0-.139-.006s-.1.006-.15.006h-2.738c-1.717,0-2.664-.446-2.979-1.948a4.621,4.621,0,0,1-2.953.947c-2.768,0-5.143-1.452-5.143-5.143,0-4.215,2.689-5.4,5.354-5.4h2.635v-1.134c0-.187.078-.265.26-.265h3.219c.188,0,.266.078.266.265v8.092c0,1.055.393,1.4,1.266,1.4h.814a1.293,1.293,0,0,1,.139.007,1.468,1.468,0,0,1,.15-.007h1.635c1.133,0,1.266-.579,1.266-2.164v-5.481c0-.187.078-.265.266-.265h3.189c.182,0,.26.078.26.265v6.223c.078.868.766,1.423,2.008,1.423h1.369c.818,0,1.633-.555,1.633-2.375v-.525c0-3.508,2.086-5.456,5.8-5.456,3.557,0,5.824,1.978,5.824,5.981,0,.24-.025.476-.025.687.08,1.158.713,1.688,1.635,1.688h2.375c.863,0,1.266-.344,1.266-1.4v-6.247c0-.187.074-.265.26-.265h3.189c.188,0,.266.078.266.265v7.513c0,2.321-.873,3.322-3.086,3.322h-3.559c-1.254,0-2.7-.151-3.533-1.53a7.136,7.136,0,0,1-9.146.108Zm2.371-4.274c0,2.007.688,2.694,2.164,2.694s2.158-.687,2.158-2.694c0-1.762-.711-2.659-2.158-2.659S19487.275,15002.02,19487.275,15003.781Zm-25.7-.446c0,1.477.893,1.953,2.133,1.953,1.346,0,2.189-.741,2.189-2.346v-1.82h-2.109C19462.445,15001.122,19461.578,15001.652,19461.578,15003.335Zm85.934,6.144c-.186,0-.264-.078-.264-.265v-17.4c0-.187.078-.265.264-.265h3.189c.188,0,.266.078.266.265v17.4c0,.187-.078.265-.266.265Zm-14.711,0h-9.406c-2.217,0-3.086-1-3.086-3.322v-14.338c0-.187.078-.265.266-.265h3.189c.182,0,.26.078.26.265v13.072c0,1.055.4,1.4,1.266,1.4h13.42c1.713,0,1.979-.368,1.979-1.767v-1.212c0-1.4-.687-2.007-2.375-2.007h-3.955c-.182,0-.26-.074-.26-.261v-2.163c0-.236.367-.579.578-.815l5.59-6.619a.228.228,0,0,1,.338-.078l2.193,1.845c.127.133.182.265.1.368l-3.955,4.588c3.666.133,5.588,1.109,5.588,5.245v1.556c0,3.455-1.314,4.51-3.979,4.51Zm-25.568,0c-.182,0-.266-.078-.266-.265v-2.66c0-.187.084-.265.266-.265h4.533c1.766,0,1.977-.451,1.977-1.8v-1.423c0-1.369-.789-1.948-2.369-1.948h-3.033c-.186,0-.264-.079-.264-.265v-2.66c0-.187.078-.265.264-.265h4.584c2.982,0,4.666,1.447,4.666,4.745v2.291c0,3.455-1.314,4.51-3.979,4.51Zm-68.447,0h-1.742c-2.219,0-3.086-1-3.086-3.322v-14.338c0-.187.078-.265.264-.265h1.688c.182,0,.266.078.266.265v14.206c0,1.055.393,1.4,1.262,1.4h1.162c.029,0,.059,0,.088,0s.064,0,.1,0h2.979a6.9,6.9,0,0,1-.766-3.455c0-4.033,2.188-5.746,5.033-5.746,3.166,0,5.035,1.713,5.035,5.746,0,4.009-1.947,5.511-5.035,5.511Zm4.426-5.668c0,2.636.818,3.612,2.82,3.612s2.822-.923,2.822-3.455c0-2.321-.818-3.689-2.822-3.689C19444.133,15000.278,19443.211,15001.593,19443.211,15003.811Zm-75.754,5.668h-.373a2.512,2.512,0,0,1-2.447-1.374,2.72,2.72,0,0,1-2.744,1.374h-2.609a2.515,2.515,0,0,1-2.449-1.374c-.451.923-1.32,1.374-2.8,1.374h-12.68c-2.213,0-3.082-1-3.082-3.322v-5.511c0-.186.074-.26.26-.26h1.689c.186,0,.264.074.264.26v5.379c0,1.055.393,1.4,1.266,1.4h11.914c.924,0,1.291-.344,1.291-1.4v-7.066c0-.182.078-.26.266-.26h1.688c.182,0,.266.078.266.26v6.776c0,1.134.971,1.688,2.369,1.688h1.953c.869,0,1.262-.344,1.262-1.4v-7.066c0-.182.084-.26.266-.26h1.688c.186,0,.264.078.264.26v6.674c0,1.182.895,1.791,2.371,1.791h1.766c.869,0,1.268-.344,1.268-1.4v-7.066c0-.182.078-.26.264-.26h1.684c.186,0,.266.078.266.26v7.2c0,2.321-.869,3.322-3.082,3.322Zm-114.375,0c-2.209,0-3.082-1-3.082-3.322v-5.511c0-.181.078-.26.266-.26h1.688c.182,0,.26.079.26.26v5.379c0,1.055.4,1.4,1.266,1.4h11.92c.922,0,1.285-.344,1.285-1.4v-14.206c0-.187.084-.265.27-.265h1.684c.186,0,.266.078.266.265v14.338c0,2.321-.82,3.322-3.137,3.322Zm4.2-7.326c-.187,0-.266-.083-.266-.265v-.658c0-.187.078-.265.266-.265h2.742c.422,0,.471-.157.471-.555v-.524c0-.452-.234-.663-.711-.663h-1.422a.334.334,0,0,1-.369-.368v-.446a.363.363,0,0,1,.133-.318l2.08-2.479c.188-.211.344-.133.422-.054l.525.451c.217.182.084.344,0,.446l-1.34,1.58h.418c1.029,0,1.561.608,1.561,1.851v.471c0,1.4-.451,1.8-1.531,1.8Zm91.2-4.539c-.182,0-.26-.078-.26-.26v-1.929c0-.182.078-.26.26-.26h1.795c.188,0,.266.078.266.26v1.929c0,.182-.078.26-.266.26Zm-3.215,0c-.186,0-.26-.078-.26-.26v-1.929c0-.182.074-.26.26-.26h1.791c.188,0,.266.078.266.26v1.929c0,.182-.078.26-.266.26Zm99.852-1.526c-.182,0-.26-.078-.26-.265v-1.924c0-.186.078-.265.26-.265h1.791c.188,0,.266.079.266.265v1.924c0,.187-.078.265-.266.265Zm-82.107,0c-.187,0-.266-.078-.266-.265v-1.924c0-.186.078-.265.266-.265h1.791c.186,0,.266.079.266.265v1.924c0,.187-.08.265-.266.265Zm22.66-1.055c-.186,0-.266-.078-.266-.265v-1.924c0-.182.08-.265.266-.265h1.791c.186,0,.266.083.266.265v1.924c0,.187-.08.265-.266.265Zm-3.219,0c-.182,0-.26-.078-.26-.265v-1.924c0-.182.078-.265.26-.265h1.795c.188,0,.266.083.266.265v1.924c0,.187-.078.265-.266.265Zm82.166-.368c-.186,0-.264-.078-.264-.265v-2.581c0-.187.078-.265.264-.265h2.66c.186,0,.266.078.266.265v2.581c0,.187-.08.265-.266.265Zm-4.062,0c-.182,0-.26-.078-.26-.265v-2.581c0-.187.078-.265.26-.265h2.635c.188,0,.266.078.266.265v2.581c0,.187-.078.265-.266.265Zm85.543-4.431c-.107,0-.162-.054-.162-.182v-1.187c0-.133.055-.187.162-.187h.971a2.941,2.941,0,0,1-.367-1.394,2.614,2.614,0,0,1,2.875-2.64,2.938,2.938,0,0,1,2.424,1.055.172.172,0,0,1-.023.24l-.791.815a.16.16,0,0,1-.266.024,1.7,1.7,0,0,0-1.24-.6,1.081,1.081,0,0,0-1.129,1.157,1.584,1.584,0,0,0,.791,1.345h2.635c.1,0,.156.054.156.187v1.188c0,.128-.055.182-.156.182Z" transform="translate(-19172.125 -14963.395)" fill="#fff" stroke="rgba(0,0,0,0)" stroke-width="1"/>
      <path id="Path_440" data-name="Path 440" d="M19444.412,14997.3v-12.373c0-.2.088-.284.289-.284h1.967c.2,0,.291.083.291.284v12.344c0,3.2,1.711,4.744,4.342,4.744s4.313-1.545,4.313-4.744v-12.344c0-.2.088-.284.283-.284h1.973c.2,0,.285.083.285.284v12.373c0,4.6-2.6,7.085-6.854,7.085C19446.959,15004.388,19444.412,15001.9,19444.412,14997.3Zm102.137,6.771a.406.406,0,0,1-.4-.255l-5.455-9.571-3.459,4.17v5.372c0,.2-.084.284-.285.284h-1.973c-.2,0-.283-.083-.283-.284v-18.859c0-.2.088-.284.283-.284h1.973c.2,0,.285.083.285.284v10.116l8.258-10.146a.517.517,0,0,1,.455-.255h2.346c.254,0,.285.112.117.343l-6.059,7.286,6.658,11.485c.141.2.082.313-.172.313Zm-17.6,0a.341.341,0,0,1-.373-.284l-1.486-4.229h-7.859l-1.486,4.229a.378.378,0,0,1-.369.284h-2c-.2,0-.256-.083-.2-.284l6.742-18.859a.332.332,0,0,1,.342-.284h1.855a.341.341,0,0,1,.373.284l6.658,18.859c.059.2,0,.284-.2.284Zm-8.891-6.858h6.2l-3.057-8.826h-.059Zm-10,6.858a.382.382,0,0,1-.373-.284l-3.885-7.943h-4.289a.151.151,0,0,0-.172.172v7.771c0,.2-.082.284-.283.284h-1.973c-.2,0-.285-.083-.285-.284v-18.859c0-.2.084-.284.285-.284h7.025c3.631,0,6.088,2.228,6.088,5.6a5.25,5.25,0,0,1-3.826,5.284l4.141,8.2c.143.23.084.343-.172.343Zm-8.719-16.882v6.113a.15.15,0,0,0,.172.167h4.543c2.287,0,3.6-1.168,3.6-3.224s-1.314-3.233-3.6-3.233h-4.543A.155.155,0,0,0,19501.338,14987.191Zm-8.291,16.882a.341.341,0,0,1-.367-.284l-1.486-4.229h-7.855l-1.486,4.229a.385.385,0,0,1-.373.284h-2c-.2,0-.256-.083-.2-.284l6.746-18.859a.333.333,0,0,1,.344-.284h1.854a.344.344,0,0,1,.373.284l6.658,18.859c.059.2,0,.284-.2.284Zm-8.885-6.858h6.2l-3.057-8.826h-.059Zm-20.6,6.858c-.2,0-.285-.083-.285-.284v-18.859c0-.2.084-.284.285-.284h6.883c3.916,0,5.859,2,5.859,5.117a4.152,4.152,0,0,1-2.6,4.224v.06a4.509,4.509,0,0,1,2.945,4.483c0,3.689-2.229,5.544-6.344,5.544Zm2.258-8.541v6.054a.151.151,0,0,0,.172.172h4.543c2.311,0,3.57-1.256,3.57-3.2s-1.26-3.2-3.57-3.2h-4.543A.153.153,0,0,0,19465.818,14995.532Zm0-8.4v5.74a.151.151,0,0,0,.172.172h4.4c2.168,0,3.4-1.2,3.4-3.027,0-1.859-1.232-3.057-3.4-3.057h-4.4A.151.151,0,0,0,19465.818,14987.133Zm-28.441,16.94c-.2,0-.285-.083-.285-.284v-13.517h-.084l-4.826,10.686a.546.546,0,0,1-.516.344h-1.143a.556.556,0,0,1-.541-.344l-4.832-10.686h-.084v13.517c0,.2-.088.284-.289.284h-1.795c-.2,0-.291-.083-.291-.284v-18.859c0-.2.09-.284.291-.284h1.854a.435.435,0,0,1,.457.284l5.8,13.09h.088l5.688-13.09a.431.431,0,0,1,.455-.284h1.859c.2,0,.285.083.285.284v18.859c0,.2-.088.284-.285.284Zm-33.516,0c-.2,0-.289-.083-.289-.284v-16.6a.151.151,0,0,0-.172-.172h-5.312c-.2,0-.285-.083-.285-.284v-1.8c0-.2.088-.284.285-.284h13.516c.2,0,.285.083.285.284v1.8c0,.2-.084.284-.285.284h-5.312a.153.153,0,0,0-.172.172v16.6c0,.2-.088.284-.289.284Zm-11.66,0a.449.449,0,0,1-.486-.284l-8.826-14.513h-.088v14.513c0,.2-.084.284-.285.284h-1.8c-.2,0-.289-.083-.289-.284v-18.859c0-.2.088-.284.289-.284h1.83a.458.458,0,0,1,.486.284l8.8,14.576h.107v-14.576c0-.2.09-.284.291-.284h1.795c.2,0,.289.083.289.284v18.859c0,.2-.088.284-.289.284Zm-19.293,0a.279.279,0,0,1-.283-.279v-18.869a.283.283,0,0,1,.283-.279h1.982a.282.282,0,0,1,.279.279v18.869a.279.279,0,0,1-.279.279Zm-17.715,0c-.2,0-.285-.083-.285-.284v-18.859c0-.2.084-.284.285-.284h6.883c3.92,0,5.863,2,5.863,5.117a4.157,4.157,0,0,1-2.605,4.224v.06a4.5,4.5,0,0,1,2.943,4.483c0,3.689-2.227,5.544-6.344,5.544Zm2.256-8.541v6.054a.151.151,0,0,0,.172.172h4.543c2.316,0,3.572-1.256,3.572-3.2s-1.256-3.2-3.572-3.2h-4.543A.153.153,0,0,0,19357.449,14995.532Zm0-8.4v5.74a.151.151,0,0,0,.172.172h4.4c2.174,0,3.4-1.2,3.4-3.027,0-1.859-1.227-3.057-3.4-3.057h-4.4A.151.151,0,0,0,19357.449,14987.133Zm-15.6,16.94a.344.344,0,0,1-.373-.284l-1.486-4.229h-7.855l-1.486,4.229a.379.379,0,0,1-.367.284h-2c-.2,0-.26-.083-.2-.284l6.742-18.859a.332.332,0,0,1,.342-.284h1.859a.34.34,0,0,1,.369.284l6.658,18.859c.059.2,0,.284-.2.284Zm-8.885-6.858h6.2l-3.057-8.826h-.059Zm-10.523,6.858c-.2,0-.285-.083-.285-.284v-13.517h-.084l-4.826,10.686a.546.546,0,0,1-.516.344h-1.143a.565.565,0,0,1-.545-.344l-4.828-10.686h-.088v13.517c0,.2-.084.284-.285.284h-1.795c-.2,0-.289-.083-.289-.284v-18.859c0-.2.088-.284.289-.284h1.854a.438.438,0,0,1,.457.284l5.8,13.09h.088l5.688-13.09a.431.431,0,0,1,.455-.284h1.859c.2,0,.285.083.285.284v18.859c0,.2-.088.284-.285.284Zm-22.2,0a.281.281,0,0,1-.285-.279v-18.864a.285.285,0,0,1,.285-.284h1.982a.282.282,0,0,1,.279.279v18.869a.279.279,0,0,1-.279.279Zm-11.8,0c-.2,0-.289-.083-.289-.284v-16.6a.152.152,0,0,0-.172-.172h-5.314c-.2,0-.283-.083-.283-.284v-1.8c0-.2.088-.284.283-.284h13.518c.2,0,.283.083.283.284v1.8c0,.2-.088.284-.283.284h-5.318a.153.153,0,0,0-.172.172v16.6c0,.2-.084.284-.285.284Zm-10.033,0a.344.344,0,0,1-.373-.284l-1.486-4.229h-7.855l-1.486,4.229a.385.385,0,0,1-.373.284h-2c-.2,0-.26-.083-.2-.284l6.74-18.859a.333.333,0,0,1,.344-.284h1.859a.344.344,0,0,1,.373.284l6.652,18.859c.059.2,0,.284-.2.284Zm-8.885-6.858h6.2l-3.057-8.826h-.059Zm-19.232,6.858c-.2,0-.289-.083-.289-.284v-18.859c0-.2.088-.284.289-.284h11.682c.2,0,.289.083.289.284v1.8c0,.2-.088.284-.289.284h-9.254c-.117,0-.172.06-.172.177v5.912a.151.151,0,0,0,.172.172h7.855c.2,0,.289.083.289.284v1.8c0,.2-.088.284-.289.284h-7.855a.152.152,0,0,0-.172.172v7.973c0,.2-.088.284-.289.284Z" transform="translate(-19170.898 -14881.167)" fill="#fff" stroke="rgba(0,0,0,0)" stroke-width="1"/>
      <path id="Path_441" data-name="Path 441" d="M19456.539,14997.748a22.263,22.263,0,0,1,0-9.014,5.719,5.719,0,0,1,5.932-4.087,5.793,5.793,0,0,1,5.8,3.694c.074.147.055.245-.117.295l-2.674,1.2a.23.23,0,0,1-.344-.123,2.737,2.737,0,0,0-2.639-1.889,2.45,2.45,0,0,0-2.5,1.84,24.357,24.357,0,0,0,0,7.148,2.45,2.45,0,0,0,2.5,1.84,2.737,2.737,0,0,0,2.639-1.889.23.23,0,0,1,.344-.123l2.674,1.2c.172.049.191.147.117.295a5.793,5.793,0,0,1-5.8,3.694A5.72,5.72,0,0,1,19456.539,14997.748Zm-39.164,1.811a.282.282,0,0,1-.023-.418l1.859-2.129a.228.228,0,0,1,.367-.024,7.064,7.064,0,0,0,4.361,1.712c1.762,0,2.719-.8,2.719-1.982,0-.976-.588-1.589-2.57-1.859l-.883-.122c-3.455-.491-5.266-2.031-5.266-5,0-3.062,2.3-5.093,5.9-5.093a9.277,9.277,0,0,1,5.652,1.737.219.219,0,0,1,.055.367l-1.5,2.228a.246.246,0,0,1-.344.074,6.681,6.681,0,0,0-3.867-1.276c-1.471,0-2.232.761-2.232,1.815,0,.957.639,1.565,2.6,1.835l.883.123c3.455.49,5.24,1.982,5.24,5.044,0,3.037-2.227,5.24-6.535,5.24A9.773,9.773,0,0,1,19417.375,14999.559Zm-45.684-1.762a22.464,22.464,0,0,1,0-9.111c.883-2.669,3.111-4.038,6.074-4.038s5.191,1.369,6.074,4.038a22.464,22.464,0,0,1,0,9.111c-.908,2.767-3.111,4.038-6.074,4.038S19372.6,15000.563,19371.691,14997.8Zm3.455-8.13a23.664,23.664,0,0,0,0,7.148,2.786,2.786,0,0,0,5.24,0,23.833,23.833,0,0,0,0-7.148,2.786,2.786,0,0,0-5.24,0Zm-35.15,9.892a.284.284,0,0,1-.025-.418l1.859-2.129a.23.23,0,0,1,.369-.024,7.064,7.064,0,0,0,4.361,1.712c1.762,0,2.719-.8,2.719-1.982,0-.976-.59-1.589-2.57-1.859l-.885-.122c-3.453-.491-5.264-2.031-5.264-5,0-3.062,2.3-5.093,5.9-5.093a9.281,9.281,0,0,1,5.652,1.737.218.218,0,0,1,.053.367l-1.5,2.228a.246.246,0,0,1-.344.074,6.671,6.671,0,0,0-3.865-1.276c-1.473,0-2.232.761-2.232,1.815,0,.957.637,1.565,2.6,1.835l.883.123c3.453.49,5.24,1.982,5.24,5.044,0,3.037-2.229,5.24-6.535,5.24A9.769,9.769,0,0,1,19340,14999.559Zm-21.824,0a.282.282,0,0,1-.023-.418l1.859-2.129a.228.228,0,0,1,.367-.024,7.053,7.053,0,0,0,4.357,1.712c1.766,0,2.719-.8,2.719-1.982,0-.976-.584-1.589-2.572-1.859l-.883-.122c-3.449-.491-5.26-2.031-5.26-5,0-3.062,2.3-5.093,5.9-5.093a9.281,9.281,0,0,1,5.656,1.737.218.218,0,0,1,.049.367l-1.492,2.228a.244.244,0,0,1-.342.074,6.7,6.7,0,0,0-3.871-1.276c-1.469,0-2.229.761-2.229,1.815,0,.957.639,1.565,2.6,1.835l.883.123c3.455.49,5.24,1.982,5.24,5.044,0,3.037-2.227,5.24-6.541,5.24A9.744,9.744,0,0,1,19318.172,14999.559Zm223.637,2.011a.214.214,0,0,1-.246-.245v-6.393l-4.922-9.774c-.072-.171,0-.245.172-.245H19540a.368.368,0,0,1,.367.245l3.014,6.074h.072l3.014-6.074a.363.363,0,0,1,.367-.245h3.086c.172,0,.246.123.172.245l-4.926,9.774v6.393c0,.167-.074.245-.246.245Zm-10.73,0c-.172,0-.246-.073-.246-.245v-9.381h-.1l-3.086,7.026a.471.471,0,0,1-.467.318h-1.687a.463.463,0,0,1-.461-.318l-3.092-7.026h-.1v9.381c0,.172-.068.245-.24.245h-2.773c-.166,0-.244-.073-.244-.245v-16.167c0-.171.078-.245.244-.245h2.92a.379.379,0,0,1,.389.245l4.215,9.5h.1l4.135-9.5a.381.381,0,0,1,.393-.245h2.867c.17,0,.244.074.244.245v16.167c0,.172-.074.245-.244.245Zm-26.818,0c-.172,0-.246-.073-.246-.245v-16.167c0-.171.074-.245.246-.245h10.676c.172,0,.244.074.244.245v2.62c0,.172-.072.246-.244.246h-7.174a.129.129,0,0,0-.146.146v3.308a.129.129,0,0,0,.146.146h5.977c.172,0,.24.074.24.246v2.595c0,.172-.068.246-.24.246h-5.977a.129.129,0,0,0-.146.146v3.454c0,.1.049.143.146.143h7.174c.172,0,.244.078.244.25v2.62c0,.172-.072.245-.244.245Zm-16.168,0c-.172,0-.244-.073-.244-.245v-16.167c0-.171.072-.245.244-.245h6.2c2.963,0,4.971,1.2,5.756,3.749a23.982,23.982,0,0,1,0,9.16c-.785,2.546-2.793,3.748-5.756,3.748Zm3.355-13.3v9.945c0,.1.051.143.148.143h1.889c1.664,0,2.664-.462,3.082-1.835a9.334,9.334,0,0,0,.27-3.278,9.549,9.549,0,0,0-.27-3.282c-.486-1.374-1.418-1.84-3.082-1.84h-1.889A.131.131,0,0,0,19491.447,14988.269Zm-9.625,13.3a.3.3,0,0,1-.32-.245l-.955-2.914h-5.83l-.932,2.914a.29.29,0,0,1-.314.245h-3.209c-.176,0-.221-.073-.176-.245l5.734-16.167a.3.3,0,0,1,.32-.245h3.086a.3.3,0,0,1,.318.245l5.633,16.167c.045.172,0,.245-.176.245Zm-6.1-6.221h3.842l-1.885-5.829h-.072Zm-25.234,6.221a.3.3,0,0,1-.318-.245l-.957-2.914h-5.828l-.928,2.914a.294.294,0,0,1-.318.245h-3.209c-.172,0-.221-.073-.172-.245l5.73-16.167a.3.3,0,0,1,.318-.245h3.088a.3.3,0,0,1,.318.245l5.633,16.167c.049.172,0,.245-.172.245Zm-6.1-6.221h3.846l-1.889-5.829h-.072Zm-36.912,6.221c-.172,0-.244-.078-.244-.245v-13.056a.13.13,0,0,0-.148-.147h-4.213c-.172,0-.246-.073-.246-.245v-2.719c0-.171.074-.245.246-.245h12.318c.172,0,.246.074.246.245v2.719c0,.172-.074.245-.246.245h-4.215a.13.13,0,0,0-.146.147v13.056c0,.167-.068.245-.24.245Zm-10.484,0a.365.365,0,0,1-.367-.245l-2.865-6.1h-2.229a.13.13,0,0,0-.146.147v5.951c0,.172-.074.245-.246.245h-3.111c-.172,0-.244-.073-.244-.245v-16.167c0-.171.072-.245.244-.245h6.639c3.4,0,5.658,2.13,5.658,5.167a4.822,4.822,0,0,1-2.965,4.632l3.283,6.564c.074.2,0,.294-.172.294Zm-5.607-13.4v3.847a.13.13,0,0,0,.146.147h2.939a2.078,2.078,0,1,0,0-4.141h-2.939A.129.129,0,0,0,19391.387,14988.17Zm-35.027,13.4c-.172,0-.246-.073-.246-.245v-16.167c0-.171.074-.245.246-.245h6.461c3.631,0,5.8,2.184,5.8,5.363,0,3.135-2.2,5.343-5.8,5.343h-2.963a.127.127,0,0,0-.143.143v5.563c0,.172-.078.245-.25.245Zm3.355-13.4v4.19a.129.129,0,0,0,.143.147h2.742a2.249,2.249,0,1,0,0-4.484h-2.742A.128.128,0,0,0,19359.715,14988.17Zm-55.064,13.4c-.172,0-.246-.073-.246-.245v-16.167c0-.171.074-.245.246-.245h10.676c.172,0,.246.074.246.245v2.62c0,.172-.074.246-.246.246h-7.174a.129.129,0,0,0-.146.146v3.308a.129.129,0,0,0,.146.146h5.977c.172,0,.246.074.246.246v2.595c0,.172-.074.246-.246.246h-5.977a.129.129,0,0,0-.146.146v3.454c0,.1.049.143.146.143h7.174c.172,0,.246.078.246.25v2.62c0,.172-.074.245-.246.245Zm-7.527,0a.24.24,0,0,1-.24-.24v-16.177a.241.241,0,0,1,.24-.24h3.121a.242.242,0,0,1,.24.245v16.167a.244.244,0,0,1-.24.245Zm-16.156,0c-.172,0-.25-.073-.25-.245v-16.167c0-.171.078-.245.25-.245h6.191c2.963,0,4.971,1.2,5.756,3.749a23.982,23.982,0,0,1,0,9.16c-.785,2.546-2.793,3.748-5.756,3.748Zm3.352-13.3v9.945c0,.1.049.143.146.143h1.889c1.664,0,2.67-.462,3.082-1.835a9.334,9.334,0,0,0,.27-3.278,9.549,9.549,0,0,0-.27-3.282c-.486-1.374-1.418-1.84-3.082-1.84h-1.889A.13.13,0,0,0,19284.318,14988.269Zm-9.627,13.3a.294.294,0,0,1-.318-.245l-.957-2.914h-5.83l-.932,2.914a.292.292,0,0,1-.318.245h-3.205c-.172,0-.221-.073-.172-.245l5.732-16.167a.3.3,0,0,1,.318-.245h3.086a.292.292,0,0,1,.314.245l5.637,16.167c.045.172,0,.245-.172.245Zm-6.1-6.221h3.852l-1.889-5.829h-.074Zm-18.346,6.221c-.166,0-.24-.073-.24-.245v-16.167c0-.171.074-.245.24-.245h3.111c.176,0,.244.074.244.245v13.057c0,.1.055.143.152.143h7.346c.172,0,.244.078.244.25v2.718c0,.172-.072.245-.244.245Z" transform="translate(-19171.338 -14844.106)" fill="#fff" stroke="rgba(0,0,0,0)" stroke-width="1"/>
    </g>
    <path id="Path_444" data-name="Path 444" d="M4.853,118.9q4.065-.481,8.3-.821,5.718-.476,11.69-.673,1.488-.05,2.962-.079,2.66-.057,5.282-.057c3.188,0,6.326.063,9.4.187q4.221.174,8.263.494l-1.454,13.317a15.923,15.923,0,0,0-6.455-3.213,11.152,11.152,0,0,0-5.609.192c-3.99,1.173-6.817,4.326-8.8,7.9a35.423,35.423,0,0,0-2.941,7.246q-.432,1.488-.767,2.993a51.228,51.228,0,0,0-1.148,13.533,56.925,56.925,0,0,0,1.144,8.98,61.741,61.741,0,0,0,2.091,7.541l-11.7.388ZM.94,96.816Q6.5,96.073,12.4,95.6q5.721-.476,11.692-.674c.99-.033,1.976-.061,2.959-.079q2.665-.057,5.284-.057,4.785,0,9.4.186,5.9.25,11.435.769l-1.453,13.32c-3.092-.263-6.277-.467-9.533-.6-4.749-.19-9.657-.237-14.682-.129-.981.017-1.967.046-2.959.079q-5.966.2-11.693.674c-3.256.259-6.45.586-9.563.975ZM32.115,73.668c-1.107-5.273-3.87-9.576-6.716-14.059-2.677-4.226-5.123-8.716-5.171-13.849A29.594,29.594,0,0,1,25.1,30.095c2.855-4.591,5.817-9.6,5.8-15.2,5.219,4.268,6.8,11.421,5.584,17.971-.7,5.461-1.938,10.965.687,15.971,1.16-8.854,6.21-12.479,6.21-12.479C59.727,55.913,58.556,82.8,30.9,89.735A27.708,27.708,0,0,0,32.115,73.668ZM19.356,82.526c-4.286-3.507-6.979-7.166-7.423-12.718-1.089,5.81-.546,10.741,3.462,16.658C3.9,79.391.041,71.6,0,64.362v-.219C.072,49.8,15.015,37.682,15.015,37.682a25.746,25.746,0,0,0,3.092,23.471c3.078,4.466,6.128,8.485,7.442,13.858a23.327,23.327,0,0,1-.89,14.724A19.957,19.957,0,0,0,19.356,82.526Zm-5.85-63.648c1.354-3.836,4.166-6.546,6.109-10.024a13.325,13.325,0,0,0,1.5-7.019A4.714,4.714,0,0,0,20.972,0c8.793,13.375,1.135,23.69,1.135,23.69-5.483,7.941-6.051,10.682-6.051,10.682A16.353,16.353,0,0,1,13.506,18.878Z" transform="translate(10 6.148)" fill="#fff"/>
  </g>
</svg>
